HIERARCHY
ROOT Hips
{
	OFFSET 0.000000 0.000000 0.000000
	CHANNELS 6 Xposition Yposition Zposition Zrotation Yrotation Xrotation 
	JOINT LHipJoint
	{
		OFFSET 0.000000 0.000000 0.000000
		CHANNELS 3 Zrotation Yrotation Xrotation
		JOINT LeftUpLeg
		{
			OFFSET 1.363060 -1.794630 0.839290
			CHANNELS 3 Zrotation Yrotation Xrotation
			JOINT LeftLeg
			{
				OFFSET 2.448110 -6.726130 0.000000
				CHANNELS 3 Zrotation Yrotation Xrotation
				JOINT LeftFoot
				{
					OFFSET 2.562200 -7.039590 0.000000
					CHANNELS 3 Zrotation Yrotation Xrotation
					JOINT LeftToeBase
					{
						OFFSET 0.157640 -0.433110 2.322550
						CHANNELS 3 Zrotation Yrotation Xrotation
						End Site
						{
							OFFSET 0.000000 0.000000 0.000000
						}
					}
				}
			}
		}
	}
	JOINT RHipJoint
	{
		OFFSET 0.000000 0.000000 0.000000
		CHANNELS 3 Zrotation Yrotation Xrotation
		JOINT RightUpLeg
		{
			OFFSET -1.305520 -1.794630 0.839290
			CHANNELS 3 Zrotation Yrotation Xrotation
			JOINT RightLeg
			{
				OFFSET -2.542530 -6.985550 0.000000
				CHANNELS 3 Zrotation Yrotation Xrotation
				JOINT RightFoot
				{
					OFFSET -2.568260 -7.056230 0.000000
					CHANNELS 3 Zrotation Yrotation Xrotation
					JOINT RightToeBase
					{
						OFFSET -0.164730 -0.452590 2.363150
						CHANNELS 3 Zrotation Yrotation Xrotation
						End Site
						{
							OFFSET 0.000000 0.000000 0.000000
						}
					}
				}
			}
		}
	}
	JOINT LowerBack
	{
		OFFSET 0.000000 0.000000 0.000000
		CHANNELS 3 Zrotation Yrotation Xrotation
		JOINT Spine
		{
			OFFSET 0.028270 2.035590 -0.193380
			CHANNELS 3 Zrotation Yrotation Xrotation
			JOINT Spine1
			{
				OFFSET 0.056720 2.048850 -0.042750
				CHANNELS 3 Zrotation Yrotation Xrotation
				JOINT Neck
				{
					OFFSET 0.000000 0.000000 0.000000
					CHANNELS 3 Zrotation Yrotation Xrotation
					JOINT Neck1
					{
						OFFSET -0.054170 1.746240 0.172020
						CHANNELS 3 Zrotation Yrotation Xrotation
						JOINT Head
						{
							OFFSET 0.104070 1.761360 -0.123970
							CHANNELS 3 Zrotation Yrotation Xrotation
							End Site
							{
								OFFSET 0.000000 0.000000 0.000000
							}
						}
					}
				}
				JOINT LeftShoulder
				{
					OFFSET 0.000000 0.000000 0.000000
					CHANNELS 3 Zrotation Yrotation Xrotation
					JOINT LeftArm
					{
						OFFSET 3.362410 1.200890 -0.311210
						CHANNELS 3 Zrotation Yrotation Xrotation
						JOINT LeftForeArm
						{
							OFFSET 4.983000 -0.000000 -0.000000
							CHANNELS 3 Zrotation Yrotation Xrotation
							JOINT LeftHand
							{
								OFFSET 3.483560 -0.000000 -0.000000
								CHANNELS 3 Zrotation Yrotation Xrotation
								JOINT LeftFingerBase
								{
									OFFSET 0.000000 0.000000 0.000000
									CHANNELS 3 Zrotation Yrotation Xrotation
									JOINT LeftHandIndex1
									{
										OFFSET 0.715260 -0.000000 -0.000000
										CHANNELS 3 Zrotation Yrotation Xrotation
										End Site
										{
											OFFSET 0.000000 0.000000 0.000000
										}
									}
								}
								JOINT LThumb
								{
									OFFSET 0.000000 0.000000 0.000000
									CHANNELS 3 Zrotation Yrotation Xrotation
									End Site
									{
										OFFSET 0.000000 0.000000 0.000000
									}
								}
							}
						}
					}
				}
				JOINT RightShoulder
				{
					OFFSET 0.000000 0.000000 0.000000
					CHANNELS 3 Zrotation Yrotation Xrotation
					JOINT RightArm
					{
						OFFSET -3.136600 1.374050 -0.404650
						CHANNELS 3 Zrotation Yrotation Xrotation
						JOINT RightForeArm
						{
							OFFSET -5.241900 -0.000000 -0.000000
							CHANNELS 3 Zrotation Yrotation Xrotation
							JOINT RightHand
							{
								OFFSET -3.444170 -0.000000 -0.000000
								CHANNELS 3 Zrotation Yrotation Xrotation
								JOINT RightFingerBase
								{
									OFFSET 0.000000 0.000000 0.000000
									CHANNELS 3 Zrotation Yrotation Xrotation
									JOINT RightHandIndex1
									{
										OFFSET -0.622530 -0.000000 -0.000000
										CHANNELS 3 Zrotation Yrotation Xrotation
										End Site
										{
											OFFSET 0.000000 0.000000 0.000000
										}
									}
								}
								JOINT RThumb
								{
									OFFSET 0.000000 0.000000 0.000000
									CHANNELS 3 Zrotation Yrotation Xrotation
									End Site
									{
										OFFSET 0.000000 0.000000 0.000000
									}
								}
							}
						}
					}
				}
			}
		}
	}
}
MOTION
Frames: 5
Frame Time: 0.008333
2.265261 17.456837 2.912032 -42.564203 -27.171884 49.087808 -19.259058 -2.551866 6.649863 35.993521 -5.239442 -27.218308 3.915623 0.428823 12.512685 0.913756 2.771371 -5.075447 0.274000 -0.000000 -54.674400 3.937744 2.991860 5.950631 -25.483139 -16.673233 -54.835422 1.800594 0.996877 -1.432027 -1.660974 -11.012461 17.255138 -5.145300 -0.000000 -62.735400 18.485137 -0.694252 -10.287063 3.087658 -3.117700 -4.841750 -7.726620 -3.110214 -0.213091 21.656987 -15.096857 -5.117458 -2.073380 -0.182303 0.491234 0.000000 0.000000 0.000000 3.187043 -3.278407 -0.968530 -84.194570 -12.769736 -0.673467 -0.949607 -44.138842 -0.069988 17.738421 -6.191904 -1.020379 -0.152015 0.291153 -0.000000 0.000000 0.000000 0.000000 0.000000 0.000000 0.000000 16.650044 -13.236122 0.264034 35.504965 7.752544 -19.062672 0.105778 85.091310 -0.035932 -11.208352 9.116190 -0.947711 0.198907 -0.358751 -0.000000 0.000000 0.000000 0.000000 0.000000 0.000000 0.000000 
2.249859 17.447814 2.921318 -42.879867 -27.655828 49.151400 -19.242052 -2.614826 6.563287 35.642785 -4.430779 -27.049606 3.810557 0.419245 12.830429 0.818262 2.207441 -5.375103 0.212000 0.000000 -54.820300 3.960466 2.976417 5.792488 -24.375029 -16.207156 -55.686098 1.957913 0.794127 0.969625 -1.593308 -10.473815 18.736652 -5.092100 0.000000 -64.180200 18.428065 -0.682606 -10.142804 3.062136 -3.074129 -4.816429 -7.731663 -3.060328 -0.209651 21.578610 -14.965965 -5.112858 -2.078628 -0.182820 0.495362 0.000000 0.000000 0.000000 3.064493 -2.986903 -0.932588 -83.860103 -12.331267 -0.799658 -0.957846 -44.394595 -0.069432 17.785271 -6.219551 -1.027073 -0.151281 0.288610 -0.000000 0.000000 0.000000 0.000000 0.000000 0.000000 0.000000 16.574308 -13.040352 0.205539 35.416360 8.197457 -19.201322 0.087394 85.494316 -0.037879 -11.329037 9.192471 -0.966323 0.198527 -0.366032 -0.000000 0.000000 0.000000 0.000000 0.000000 0.000000 0.000000 
2.233776 17.439020 2.928762 -43.164276 -28.117306 49.177117 -19.218382 -2.670627 6.471429 35.280913 -3.596437 -26.885273 3.694002 0.413132 13.119883 0.707362 1.550562 -5.654906 0.150901 0.000000 -55.059100 3.994053 2.940212 5.621782 -23.481404 -15.562099 -56.262922 2.067048 0.584377 3.236361 -1.505467 -9.735237 20.485265 -4.938999 -0.000000 -65.442500 18.350779 -0.684640 -9.973709 3.033309 -3.042188 -4.783970 -7.740933 -3.023169 -0.204479 21.516063 -14.843376 -5.122098 -2.082218 -0.183029 0.495406 0.000000 0.000000 0.000000 2.942942 -2.677205 -0.889865 -83.504480 -11.964727 -0.969146 -0.966276 -44.562365 -0.069011 17.882067 -6.270762 -1.040369 -0.150780 0.286025 -0.000000 0.000000 0.000000 0.000000 0.000000 0.000000 0.000000 16.507234 -12.854542 0.141900 35.379264 8.612913 -19.327692 0.068318 85.954951 -0.039914 -11.460554 9.270345 -0.986133 0.198304 -0.373426 -0.000000 0.000000 0.000000 0.000000 0.000000 0.000000 0.000000 
2.217423 17.430939 2.935166 -43.410622 -28.550959 49.186514 -19.189639 -2.717195 6.382149 34.922635 -2.776658 -26.745900 3.573762 0.409740 13.378159 0.591580 0.858922 -5.904443 0.096100 0.000000 -55.350101 4.037889 2.881906 5.457788 -22.791916 -14.744880 -56.593494 2.129705 0.384753 5.316078 -1.404373 -8.803025 22.312802 -4.647700 0.000000 -66.470000 18.256980 -0.693128 -9.805932 3.002080 -3.017628 -4.749363 -7.753327 -2.994313 -0.195145 21.469429 -14.735357 -5.145466 -2.083443 -0.182891 0.491322 0.000000 0.000000 0.000000 2.820430 -2.354168 -0.841930 -83.140908 -11.674549 -1.177753 -0.975349 -44.623333 -0.068669 18.026854 -6.339039 -1.059369 -0.150472 0.283195 -0.000000 0.000000 0.000000 0.000000 0.000000 0.000000 0.000000 16.445794 -12.684347 0.074711 35.389692 8.985791 -19.446142 0.048901 86.471489 -0.042005 -11.601695 9.345915 -1.006842 0.198350 -0.380831 -0.000000 0.000000 0.000000 0.000000 0.000000 0.000000 0.000000 
2.201302 17.424192 2.940858 -43.618923 -28.956471 49.186360 -19.155730 -2.753853 6.295778 34.571965 -1.999592 -26.624126 3.455029 0.408382 13.593480 0.478261 0.175284 -6.113297 0.050200 0.000000 -55.654600 4.090765 2.803606 5.308617 -22.251573 -13.781811 -56.740359 2.157386 0.202374 7.224059 -1.293244 -7.679209 24.039100 -4.190300 0.000000 -67.332000 18.146368 -0.703964 -9.645741 2.967766 -2.996489 -4.714470 -7.769210 -2.969641 -0.183048 21.442512 -14.644035 -5.180008 -2.082869 -0.182483 0.483834 0.000000 0.000000 0.000000 2.703049 -2.036517 -0.790236 -82.778781 -11.451373 -1.432578 -0.984391 -44.575224 -0.068366 18.213860 -6.413929 -1.082074 -0.150238 0.279961 -0.000000 0.000000 0.000000 0.000000 0.000000 0.000000 0.000000 16.395032 -12.532131 0.006582 35.442940 9.306256 -19.560793 0.029504 87.041050 -0.044120 -11.751464 9.414432 -1.027749 0.198766 -0.388098 -0.000000 0.000000 0.000000 0.000000 0.000000 0.000000 0.000000 
